# xmcd
#
# Track frame offsets: 
#        150
#        14900
#        27779
#        42595
#        52856
#        64777
#        75305
#        84805
#        95449
#        108188
#
# Disc length: 1582 seconds
#
# Revision: 0
# Processed by: cddbd v1.5.1PL0 Copyright (c) Steve Scherf et al.
# Submitted via: ExactAudioCopy v0.90b4
#
DISCID=6d062c0a
DTITLE=George Jones - George Jones, The Best Of The Best Of, Through T
DTITLE=he Years
DYEAR=2004
DGENRE=Country
TTITLE0=Who's Gonna Fill Their Shoes
TTITLE1=Color Of The Blues
TTITLE2=He Stopped Loving Her Today
TTITLE3=Why Baby Why
TTITLE4=I Turn To You
TTITLE5=Her Name Is...
TTITLE6=I'm A One Woman Man
TTITLE7=Nothing Ever Hurt Me (Half As Bad As Losing You)
TTITLE8=Taggin' Along
TTITLE9=I'm Ragged But I'm Right
EXTD=
EXTT0=
EXTT1=
EXTT2=
EXTT3=
EXTT4=
EXTT5=
EXTT6=
EXTT7=
EXTT8=
EXTT9=
PLAYORDER=
